<svg width="95" height="146" viewBox="0 0 95 146" fill="none" xmlns="http://www.w3.org/2000/svg">
<path d="M44.7201 131.377C44.0657 132.591 44.5184 134.113 45.7313 134.776L65.4965 145.582C66.7094 146.245 68.2232 145.798 68.8777 144.585C69.5321 143.371 69.0794 141.849 67.8665 141.186L50.2974 131.581L59.7774 113.997C60.4319 112.783 59.9792 111.261 58.7663 110.598C57.5534 109.935 56.0396 110.382 55.3851 111.595L44.7201 131.377ZM47.6312 134.981C63.0218 130.441 74.1123 125.544 81.6316 120.286C89.1676 115.017 93.3327 109.225 94.3668 102.895C95.3954 96.5994 93.2293 90.3523 89.3707 84.3718C85.5101 78.3879 79.7882 72.4068 73.2217 66.5115C66.6405 60.603 59.0955 54.6803 51.516 48.8413C43.9096 42.9815 36.2827 37.2164 29.4207 31.5483C22.553 25.8755 16.5685 20.3935 12.2388 15.1453C7.87339 9.85361 5.44025 5.0953 5.17476 0.855467L0.193696 1.14403C0.558583 6.97123 3.79859 12.7488 8.40127 18.328C13.0398 23.9507 19.3183 29.6747 26.2609 35.4093C33.2091 41.1486 40.9396 46.9923 48.49 52.8089C56.0673 58.6463 63.4784 64.4677 69.9049 70.2372C76.346 76.02 81.6833 81.6508 85.1856 87.0791C88.6899 92.5107 90.1905 97.476 89.4416 102.06C88.6984 106.609 85.6419 111.362 78.7645 116.171C71.8704 120.992 61.3557 125.705 46.2013 130.175L47.6312 134.981Z" fill="black"/>
</svg>
