<svg width="54" height="81" viewBox="0 0 54 81" fill="none" xmlns="http://www.w3.org/2000/svg">
<path d="M49.4031 12.4498L50.332 14.7709V14.7709L49.4031 12.4498ZM52.8252 12.9845C53.3689 11.7153 52.7808 10.2457 51.5117 9.70199L30.8296 0.841933C29.5604 0.298236 28.0908 0.886337 27.5471 2.15549C27.0034 3.42465 27.5915 4.89426 28.8607 5.43796L47.2448 13.3136L39.3692 31.6977C38.8255 32.9668 39.4136 34.4364 40.6827 34.9801C41.9519 35.5238 43.4215 34.9357 43.9652 33.6666L52.8252 12.9845ZM50.332 14.7709L51.4561 14.3211L49.5984 9.67895L48.4743 10.1288L50.332 14.7709ZM5.5 81C5.5 51.8346 23.2542 25.6067 50.332 14.7709L48.4743 10.1288C19.4987 21.7241 0.5 49.7904 0.5 81H5.5Z" fill="black"/>
</svg>
