<svg width="62" height="144" viewBox="0 0 62 144" fill="none" xmlns="http://www.w3.org/2000/svg">
<path d="M22.8174 1.16289C21.9713 0.0666807 20.4035 -0.138134 19.3156 0.70544L1.58726 14.4522C0.499365 15.2958 0.303358 16.8683 1.14947 17.9645C1.99558 19.0607 3.56341 19.2655 4.65131 18.4219L20.4098 6.2026L32.666 22.0816C33.5121 23.1778 35.0799 23.3826 36.1678 22.5391C37.2557 21.6955 37.4518 20.123 36.6056 19.0268L22.8174 1.16289ZM26.2922 143.164C46.7477 127.494 56.7808 113.419 59.9674 100.203C63.1717 86.914 59.3277 75.0268 53.2818 64.0965C50.263 58.639 46.6576 53.3522 43.0477 48.2087C39.4132 43.0299 35.7962 38.026 32.6225 32.9876C26.2598 22.8862 22.054 13.2008 23.3238 3.01379L18.3715 2.36684C16.8768 14.3581 21.901 25.3184 28.4078 35.6486C31.669 40.826 35.3967 45.9843 38.9723 51.0791C42.5727 56.2091 46.043 61.3072 48.9211 66.5106C54.6691 76.9022 57.9036 87.4414 55.1162 99.0014C52.3113 110.634 43.2825 123.832 23.2513 139.176L26.2922 143.164Z" fill="black"/>
</svg>
