<svg width="62" height="144" viewBox="0 0 62 144" fill="none" xmlns="http://www.w3.org/2000/svg">
<path d="M22.8177 1.16289C21.9716 0.0666807 20.4038 -0.138134 19.3159 0.70544L1.58751 14.4522C0.499609 15.2958 0.303602 16.8683 1.14971 17.9645C1.99583 19.0607 3.56365 19.2655 4.65155 18.4219L20.4101 6.2026L32.6663 22.0816C33.5124 23.1778 35.0802 23.3826 36.1681 22.5391C37.256 21.6955 37.452 20.123 36.6059 19.0268L22.8177 1.16289ZM26.2924 143.164C46.748 127.494 56.781 113.419 59.9677 100.203C63.172 86.914 59.3279 75.0268 53.282 64.0965C50.2633 58.639 46.6578 53.3522 43.048 48.2087C39.4134 43.0299 35.7964 38.026 32.6228 32.9876C26.2601 22.8862 22.0543 13.2008 23.324 3.01379L18.3717 2.36684C16.877 14.3581 21.9012 25.3184 28.4081 35.6486C31.6692 40.826 35.3969 45.9843 38.9726 51.0791C42.5729 56.2091 46.0432 61.3072 48.9214 66.5106C54.6693 76.9022 57.9038 87.4414 55.1165 99.0014C52.3115 110.634 43.2828 123.832 23.2515 139.176L26.2924 143.164Z" fill="black"/>
</svg>
