<svg width="94" height="128" viewBox="0 0 94 128" fill="none" xmlns="http://www.w3.org/2000/svg">
<ellipse cx="10.9521" cy="12.5" rx="10.1161" ry="12.5" fill="#A32186"/>
<ellipse cx="83.4511" cy="78.5" rx="10.1161" ry="12.5" fill="#A32186"/>
<ellipse cx="41.3002" cy="53.5" rx="10.1161" ry="12.5" fill="#A32186"/>
<ellipse cx="73.3349" cy="12.5" rx="10.1161" ry="12.5" fill="#A32186"/>
<ellipse cx="21.0683" cy="115.5" rx="10.1161" ry="12.5" fill="#A32186"/>
<line y1="-0.5" x2="27.4664" y2="-0.5" transform="matrix(0.64454 0.76457 -0.64454 0.76457 16.0103 23)" stroke="#A32186"/>
<line y1="-0.5" x2="27.4438" y2="-0.5" transform="matrix(0.860095 0.510133 -0.388411 0.921486 49.7305 60)" stroke="#A32186"/>
<line y1="-0.5" x2="48.5959" y2="-0.5" transform="matrix(0.156126 0.987737 -0.976147 0.217112 67.4336 23)" stroke="#A32186"/>
<line y1="-0.5" x2="47.0507" y2="-0.5" transform="matrix(-0.985439 -0.170029 0.121708 -0.992566 67.4336 23)" stroke="#A32186"/>
<line y1="-0.5" x2="80.2838" y2="-0.5" transform="matrix(0.0840031 0.996466 -0.993038 0.117797 10.9521 25)" stroke="#A32186"/>
<line y1="-0.5" x2="52.4256" y2="-0.5" transform="matrix(0.820086 -0.57224 0.444264 0.895896 30.3413 111)" stroke="#A32186"/>
<line y1="-0.5" x2="40.9988" y2="-0.5" transform="matrix(-0.308428 0.951248 -0.909785 -0.415081 36.2422 64)" stroke="#A32186"/>
<line y1="-0.5" x2="29.1607" y2="-0.5" transform="matrix(-0.69382 0.720148 -0.593612 -0.804751 67.4336 23)" stroke="#A32186"/>
</svg>
