<svg width="602" height="81" viewBox="0 0 602 81" fill="none" xmlns="http://www.w3.org/2000/svg">
<path d="M601.765 52.6666C601.765 68.2802 589.108 80.9375 573.494 80.9375L28.2709 80.9374C12.6573 80.9374 1.10654e-06 68.2802 2.47152e-06 52.6666L7.06147e-06 0.163659L601.765 0.163712L601.765 52.6666Z" fill="white"/>
<path d="M564.743 53.3938L555.031 47.3237L545.319 53.3938V26.6857C545.319 26.3637 545.447 26.0549 545.675 25.8273C545.903 25.5996 546.211 25.4717 546.533 25.4717H563.529C563.851 25.4717 564.16 25.5996 564.388 25.8273C564.615 26.0549 564.743 26.3637 564.743 26.6857V53.3938Z" stroke="#797596" stroke-width="2.42801" stroke-linecap="round" stroke-linejoin="round"/>
<path d="M46.7336 52.1798C46.7336 52.1798 31.5586 43.6817 31.5586 33.3627C31.5586 31.5385 32.1906 29.7706 33.3472 28.3599C34.5037 26.9492 36.1133 25.9827 37.9021 25.6249C39.6908 25.2672 41.5483 25.5402 43.1585 26.3976C44.7687 27.255 46.032 28.6438 46.7336 30.3277V30.3277C47.4353 28.6438 48.6986 27.255 50.3088 26.3976C51.9189 25.5402 53.7764 25.2672 55.5652 25.6249C57.354 25.9827 58.9636 26.9492 60.1201 28.3599C61.2766 29.7706 61.9087 31.5385 61.9087 33.3627C61.9087 43.6817 46.7336 52.1798 46.7336 52.1798Z" stroke="#797596" stroke-width="2.42801" stroke-linecap="round" stroke-linejoin="round"/>
<path d="M89.2018 46.2617C87.3943 43.2121 86.7621 39.6077 87.4238 36.125C88.0855 32.6423 89.9957 29.5209 92.7957 27.3468C95.5957 25.1727 99.0931 24.0954 102.631 24.3171C106.169 24.5388 109.505 26.0443 112.011 28.551C114.518 31.0577 116.024 34.3932 116.245 37.9312C116.467 41.4693 115.39 44.9666 113.216 47.7666C111.041 50.5666 107.92 52.4768 104.437 53.1385C100.955 53.8003 97.3502 53.168 94.3006 51.3605V51.3605L89.2625 52.7869C89.0561 52.8473 88.8373 52.851 88.6289 52.7978C88.4206 52.7445 88.2304 52.6361 88.0783 52.484C87.9262 52.3319 87.8179 52.1418 87.7646 51.9334C87.7113 51.7251 87.715 51.5062 87.7754 51.2998L89.2018 46.2617Z" stroke="#797596" stroke-width="2.42801" stroke-linecap="round" stroke-linejoin="round"/>
<path d="M169.23 24.8495L140.944 32.8164C140.703 32.8822 140.488 33.0207 140.329 33.2129C140.17 33.4051 140.074 33.6418 140.054 33.8906C140.034 34.1394 140.091 34.3883 140.218 34.6034C140.344 34.8185 140.534 34.9893 140.762 35.0926L153.751 41.2385C154.006 41.3564 154.21 41.5607 154.328 41.8152L160.474 54.805C160.577 55.0323 160.748 55.2222 160.963 55.3488C161.178 55.4755 161.427 55.5328 161.676 55.5129C161.925 55.493 162.161 55.3968 162.354 55.2376C162.546 55.0783 162.684 54.8637 162.75 54.6229L170.717 26.3366C170.777 26.1302 170.781 25.9114 170.728 25.703C170.675 25.4947 170.566 25.3045 170.414 25.1524C170.262 25.0003 170.072 24.892 169.864 24.8387C169.655 24.7854 169.436 24.7891 169.23 24.8495V24.8495Z" stroke="#797596" stroke-width="2.42801" stroke-linecap="round" stroke-linejoin="round"/>
<path d="M154.145 41.4206L161.004 34.5615" stroke="#797596" stroke-width="2.42801" stroke-linecap="round" stroke-linejoin="round"/>
</svg>
