<svg width="602" height="81" viewBox="0 0 602 81" fill="none" xmlns="http://www.w3.org/2000/svg">
<path d="M601.765 52.6666C601.765 68.2802 589.108 80.9375 573.494 80.9375L28.2709 80.9374C12.6573 80.9374 1.10654e-06 68.2802 2.47152e-06 52.6666L7.06147e-06 0.163659L601.765 0.163712L601.765 52.6666Z" fill="white"/>
<path d="M564.743 53.3938L555.031 47.3237L545.319 53.3938V26.6857C545.319 26.3637 545.447 26.0549 545.675 25.8273C545.903 25.5996 546.211 25.4717 546.533 25.4717H563.529C563.851 25.4717 564.16 25.5996 564.388 25.8273C564.615 26.0549 564.743 26.3637 564.743 26.6857V53.3938Z" stroke="#797596" stroke-width="2.42801" stroke-linecap="round" stroke-linejoin="round"/>
<path d="M46.7338 52.1798C46.7338 52.1798 31.5587 43.6817 31.5587 33.3627C31.5587 31.5385 32.1907 29.7706 33.3473 28.3599C34.5038 26.9492 36.1134 25.9827 37.9022 25.6249C39.691 25.2672 41.5485 25.5402 43.1586 26.3976C44.7688 27.255 46.0321 28.6438 46.7338 30.3277V30.3277C47.4354 28.6438 48.6987 27.255 50.3089 26.3976C51.9191 25.5402 53.7765 25.2672 55.5653 25.6249C57.3541 25.9827 58.9637 26.9492 60.1202 28.3599C61.2768 29.7706 61.9088 31.5385 61.9088 33.3627C61.9088 43.6817 46.7338 52.1798 46.7338 52.1798Z" stroke="#797596" stroke-width="2.42801" stroke-linecap="round" stroke-linejoin="round"/>
<path d="M89.2017 46.2617C87.3942 43.2121 86.7619 39.6077 87.4237 36.125C88.0854 32.6423 89.9956 29.5209 92.7956 27.3468C95.5956 25.1727 99.0929 24.0954 102.631 24.3171C106.169 24.5388 109.504 26.0443 112.011 28.551C114.518 31.0577 116.023 34.3932 116.245 37.9312C116.467 41.4693 115.39 44.9666 113.215 47.7666C111.041 50.5666 107.92 52.4768 104.437 53.1385C100.955 53.8003 97.3501 53.168 94.3005 51.3605V51.3605L89.2624 52.7869C89.056 52.8473 88.8371 52.851 88.6288 52.7978C88.4204 52.7445 88.2303 52.6361 88.0782 52.484C87.9261 52.3319 87.8177 52.1418 87.7645 51.9334C87.7112 51.7251 87.7149 51.5062 87.7753 51.2998L89.2017 46.2617Z" stroke="#797596" stroke-width="2.42801" stroke-linecap="round" stroke-linejoin="round"/>
<path d="M169.23 24.8495L140.943 32.8164C140.702 32.8822 140.488 33.0207 140.329 33.2129C140.169 33.4051 140.073 33.6418 140.053 33.8906C140.033 34.1394 140.091 34.3883 140.217 34.6034C140.344 34.8185 140.534 34.9893 140.761 35.0926L153.751 41.2385C154.005 41.3564 154.21 41.5607 154.328 41.8152L160.474 54.805C160.577 55.0323 160.748 55.2222 160.963 55.3488C161.178 55.4755 161.427 55.5328 161.676 55.5129C161.924 55.493 162.161 55.3968 162.353 55.2376C162.546 55.0783 162.684 54.8637 162.75 54.6229L170.717 26.3366C170.777 26.1302 170.781 25.9114 170.728 25.703C170.674 25.4947 170.566 25.3045 170.414 25.1524C170.262 25.0003 170.072 24.892 169.863 24.8387C169.655 24.7854 169.436 24.7891 169.23 24.8495V24.8495Z" stroke="#797596" stroke-width="2.42801" stroke-linecap="round" stroke-linejoin="round"/>
<path d="M154.145 41.4206L161.004 34.5615" stroke="#797596" stroke-width="2.42801" stroke-linecap="round" stroke-linejoin="round"/>
</svg>
