<svg width="106" height="40" viewBox="0 0 106 40" fill="none" xmlns="http://www.w3.org/2000/svg">
<path fill-rule="evenodd" clip-rule="evenodd" d="M105.214 30.8378C103.547 35.9979 98.7032 39.73 92.9879 39.73H13.29C6.19498 39.73 0.443359 33.9784 0.443359 26.8834V24.0893C4.95897 18.4786 9.6886 13.0404 14.6224 7.78686L17.3538 4.87833C22.2061 -1.04974 31.1715 -0.939144 35.9245 4.79171C36.0108 4.89582 36.0968 5.00033 36.1829 5.10488C36.6545 5.67795 37.1269 6.252 37.6606 6.7666L41.3152 10.29C42.0269 10.9762 42.6487 11.748 43.2692 12.5182C43.3089 12.5676 43.3487 12.6169 43.3884 12.6662C48.2907 18.7453 55.704 18.8319 61.4281 12.9046C68.3303 5.75737 79.783 5.75736 86.6852 12.9046C93.2647 18.4332 99.4644 24.4371 105.214 30.8378Z" fill="#FF98D5"/>
</svg>
