<svg width="106" height="40" viewBox="0 0 106 40" fill="none" xmlns="http://www.w3.org/2000/svg">
<path fill-rule="evenodd" clip-rule="evenodd" d="M105.214 30.8378C103.547 35.9979 98.7032 39.73 92.9879 39.73H13.29C6.19498 39.73 0.443359 33.9784 0.443359 26.8834V24.0892C4.95897 18.4786 9.6886 13.0404 14.6224 7.78683L17.3538 4.87831C22.2061 -1.04977 31.1715 -0.939172 35.9245 4.79168C36.0108 4.89578 36.0968 5.00029 36.1828 5.10483C36.6544 5.6779 37.1269 6.25196 37.6606 6.76657L41.3152 10.2899C42.027 10.9762 42.6488 11.7481 43.2692 12.5183C43.309 12.5676 43.3487 12.6169 43.3884 12.6662C48.2907 18.7453 55.704 18.8319 61.4281 12.9045C68.3302 5.75734 79.783 5.75733 86.6852 12.9045C93.2647 18.4332 99.4644 24.4371 105.214 30.8378Z" fill="#FF98D5"/>
</svg>
