<svg width="102" height="66" viewBox="0 0 102 66" fill="none" xmlns="http://www.w3.org/2000/svg">
<path d="M47.8977 -31.94C49.0586 -34.8312 53.1515 -34.8312 54.3124 -31.94L59.0534 -20.1329C59.8865 -18.0583 62.4402 -17.3084 64.2627 -18.6034L74.6344 -25.9729C77.1741 -27.7775 80.6173 -25.5647 80.0308 -22.5048L77.6358 -10.009C77.215 -7.81327 78.958 -5.80177 81.1912 -5.90584L93.9007 -6.49814C97.0129 -6.64318 98.7132 -2.92014 96.5655 -0.663082L87.7949 8.55426C86.2538 10.1739 86.6326 12.8084 88.5676 13.9282L99.5797 20.3012C102.276 21.8618 101.694 25.913 98.6668 26.6507L86.3052 29.6631C84.1331 30.1924 83.0275 32.6135 84.0499 34.6017L89.8684 45.9166C91.2931 48.6873 88.6129 51.7805 85.6676 50.7645L73.6398 46.6156C71.5263 45.8865 69.2872 47.3255 69.0724 49.5508L67.8499 62.2153C67.5506 65.3164 63.6235 66.4695 61.695 64.0225L53.8197 54.0294C52.4359 52.2735 49.7743 52.2735 48.3905 54.0294L40.5151 64.0225C38.5867 66.4695 34.6596 65.3164 34.3602 62.2153L33.1377 49.5508C32.9229 47.3255 30.6838 45.8865 28.5704 46.6156L16.5425 50.7645C13.5973 51.7805 10.917 48.6873 12.3418 45.9166L18.1603 34.6017C19.1827 32.6135 18.077 30.1924 15.9049 29.6631L3.54333 26.6507C0.516339 25.913 -0.0661341 21.8618 2.63042 20.3012L13.6426 13.9282C15.5776 12.8084 15.9564 10.1739 14.4152 8.55426L5.64463 -0.663086C3.49697 -2.92015 5.19722 -6.64317 8.30942 -6.49814L21.0189 -5.90584C23.2522 -5.80177 24.9952 -7.81327 24.5743 -10.009L22.1793 -22.5048C21.5928 -25.5647 25.036 -27.7775 27.5757 -25.9729L37.9474 -18.6034C39.7699 -17.3084 42.3237 -18.0583 43.1567 -20.1329L47.8977 -31.94Z" fill="#2DB4EF"/>
</svg>
