<svg width="102" height="66" viewBox="0 0 102 66" fill="none" xmlns="http://www.w3.org/2000/svg">
<path d="M47.8978 -31.9402C49.0587 -34.8314 53.1516 -34.8314 54.3126 -31.9402L59.0535 -20.1332C59.8866 -18.0585 62.4404 -17.3087 64.2628 -18.6036L74.6345 -25.9732C77.1743 -27.7778 80.6174 -25.565 80.031 -22.5051L77.6359 -10.0092C77.2151 -7.81351 78.9581 -5.80201 81.1913 -5.90609L93.9009 -6.49838C97.013 -6.64342 98.7133 -2.92039 96.5656 -0.663325L87.795 8.55402C86.2539 10.1736 86.6327 12.8082 88.5677 13.928L99.5798 20.301C102.276 21.8616 101.694 25.9128 98.6669 26.6504L86.3054 29.6628C84.1333 30.1921 83.0276 32.6132 84.05 34.6014L89.8685 45.9164C91.2933 48.6871 88.613 51.7803 85.6677 50.7643L73.6399 46.6153C71.5264 45.8863 69.2873 47.3252 69.0725 49.5506L67.85 62.215C67.5507 65.3162 63.6236 66.4693 61.6951 64.0223L53.8198 54.0292C52.436 52.2732 49.7744 52.2732 48.3906 54.0292L40.5152 64.0223C38.5868 66.4693 34.6597 65.3162 34.3603 62.215L33.1379 49.5506C32.923 47.3252 30.684 45.8863 28.5705 46.6153L16.5427 50.7643C13.5974 51.7803 10.9171 48.6871 12.3419 45.9164L18.1604 34.6014C19.1828 32.6132 18.0771 30.1921 15.905 29.6628L3.54345 26.6504C0.516461 25.9128 -0.0660122 21.8616 2.63055 20.301L13.6427 13.928C15.5777 12.8081 15.9565 10.1736 14.4154 8.55401L5.64476 -0.66333C3.49709 -2.92039 5.19735 -6.64342 8.30954 -6.49838L21.0191 -5.90609C23.2523 -5.80201 24.9953 -7.81352 24.5744 -10.0092L22.1794 -22.5051C21.593 -25.565 25.0361 -27.7778 27.5759 -25.9732L37.9476 -18.6036C39.77 -17.3087 42.3238 -18.0585 43.1569 -20.1332L47.8978 -31.9402Z" fill="#2DB4EF"/>
</svg>
