<svg width="48" height="66" viewBox="0 0 48 66" fill="none" xmlns="http://www.w3.org/2000/svg">
<path fill-rule="evenodd" clip-rule="evenodd" d="M45.1697 29.9921C47.6703 29.3521 48.1502 26.0216 45.9312 24.7066L5.58858 0.7993C3.66849 -0.338557 1.23208 1.02113 1.20304 3.24674L0.592975 50.0086C0.559419 52.5806 3.66066 53.9126 5.51465 52.1225L15.6558 42.3304C17.0238 41.0095 19.2766 41.3377 20.2076 42.9936L32.2773 64.4611C33.0606 65.8543 34.8292 66.3511 36.2276 65.5707L40.6371 63.1099C42.0355 62.3295 42.5341 60.5674 41.7508 59.1742L29.681 37.7066C28.75 36.0507 29.6457 33.9654 31.4909 33.4931L45.1697 29.9921Z" fill="#FF98D5"/>
</svg>
