<svg width="48" height="49" viewBox="0 0 48 49" fill="none" xmlns="http://www.w3.org/2000/svg">
<path fill-rule="evenodd" clip-rule="evenodd" d="M10.3582 30.3225C10.1173 30.5564 9.87997 30.7962 9.64636 31.0418C8.53912 32.1798 7.58568 33.4101 6.75525 34.7019C3.5258 39.6845 9.61562 45.4975 14.4444 42.022C15.7054 41.13 16.8742 40.115 17.9814 38.9463C18.1899 38.727 18.3936 38.5049 18.5926 38.2799C18.5883 38.6035 18.5902 38.9286 18.5985 39.2551C18.66 40.8544 18.8446 42.3923 19.1521 43.8993C20.4131 49.7123 28.8097 49.5278 29.7632 43.6533C30.0092 42.1462 30.1015 40.5776 30.0707 38.9783C30.0623 38.6461 30.0475 38.3156 30.0264 37.9868C30.2704 38.2389 30.5207 38.4872 30.7774 38.7313C31.9154 39.8078 33.1457 40.792 34.4375 41.6225C39.42 44.8519 45.233 38.7621 41.7575 33.9333C40.8656 32.6723 39.8506 31.5035 38.6819 30.3963C38.4529 30.1786 38.2207 29.9661 37.9855 29.7587C38.3174 29.7634 38.6508 29.7616 38.9856 29.7531C40.5542 29.7224 42.1227 29.5378 43.6298 29.1995C49.4428 27.9385 49.2583 19.5419 43.3838 18.5885C41.8767 18.3424 40.3081 18.2501 38.7088 18.2809C38.3762 18.2893 38.0454 18.3042 37.7163 18.3253C37.9586 18.0901 38.1973 17.849 38.4323 17.6019C39.5395 16.4332 40.4929 15.2029 41.3234 13.9419C44.5528 8.95933 38.463 3.14633 33.6342 6.62183C32.3732 7.51377 31.2044 8.52874 30.0972 9.69749C29.8894 9.91605 29.6863 10.1375 29.4879 10.3618C29.4922 10.0391 29.4902 9.71492 29.482 9.38942C29.4204 7.79008 29.2359 6.22149 28.9283 4.74517C27.6673 -1.06784 19.2708 -0.883297 18.3173 4.99122C18.0712 6.4983 17.979 8.06689 18.0097 9.66623C18.0181 9.99777 18.0329 10.3277 18.0539 10.6558C17.8109 10.4047 17.5616 10.1575 17.306 9.91439C16.168 8.80715 14.9377 7.85369 13.6459 7.02326C8.66336 3.79382 2.85036 9.88363 6.32586 14.7124C7.21781 15.9734 8.23277 17.1422 9.40153 18.2494C9.6312 18.4678 9.86409 18.6809 10.1001 18.8889C9.76569 18.8841 9.42977 18.8859 9.09241 18.8944C7.52383 18.9252 5.95525 19.1097 4.44817 19.448C-1.36483 20.7091 -1.1803 29.1056 4.69422 30.0591C6.2013 30.3051 7.76989 30.3974 9.36923 30.3666C9.7006 30.3582 10.0303 30.3435 10.3582 30.3225Z" fill="#FF98D5"/>
</svg>
