<svg width="71" height="74" viewBox="0 0 71 74" fill="none" xmlns="http://www.w3.org/2000/svg">
<path fill-rule="evenodd" clip-rule="evenodd" d="M0.432346 14.3547C0.432346 6.80582 6.55189 0.686279 14.1007 0.686279L57.3038 0.686279C64.8526 0.686279 70.9722 6.80582 70.9722 14.3547C70.9722 19.0777 68.5766 23.2413 64.9342 25.6966C68.5455 28.1566 70.9168 32.3019 70.9168 37.001C70.9168 41.7054 68.5401 45.8546 64.922 48.3137C68.556 50.7703 70.945 54.9289 70.945 59.6455C70.945 67.1943 64.8255 73.3139 57.2767 73.3139H14.0736C6.52475 73.3139 0.405194 67.1943 0.405194 59.6455C0.405194 54.9411 2.78184 50.7918 6.39997 48.3328C2.76598 45.8762 0.376953 41.7176 0.376953 37.001C0.376953 32.2779 2.77252 28.1143 6.4149 25.659C2.80365 23.199 0.432346 19.0538 0.432346 14.3547Z" fill="#FF5C37"/>
</svg>
