<svg width="48" height="49" viewBox="0 0 48 49" fill="none" xmlns="http://www.w3.org/2000/svg">
<path fill-rule="evenodd" clip-rule="evenodd" d="M10.3584 30.3222C10.1174 30.5562 9.8801 30.796 9.64649 31.0416C8.53925 32.1796 7.5858 33.4099 6.75537 34.7016C3.52593 39.6842 9.61574 45.4972 14.4445 42.0217C15.7056 41.1298 16.8743 40.1148 17.9815 38.946C18.19 38.7268 18.3937 38.5046 18.5927 38.2796C18.5884 38.6033 18.5903 38.9284 18.5986 39.2548C18.6601 40.8542 18.8447 42.392 19.1522 43.8991C20.4133 49.7121 28.8098 49.5276 29.7633 43.653C30.0093 42.146 30.1016 40.5774 30.0709 38.978C30.0624 38.6458 30.0476 38.3153 30.0265 37.9866C30.2705 38.2387 30.5208 38.4869 30.7775 38.7311C31.9155 39.8076 33.1458 40.7918 34.4376 41.6222C39.4202 44.8517 45.2332 38.7619 41.7577 33.9331C40.8657 32.672 39.8507 31.5033 38.682 30.3961C38.453 30.1784 38.2209 29.9659 37.9856 29.7585C38.3175 29.7632 38.6509 29.7614 38.9857 29.7529C40.5543 29.7221 42.1229 29.5376 43.6299 29.1993C49.4429 27.9382 49.2584 19.5417 43.3839 18.5882C41.8768 18.3422 40.3082 18.2499 38.7089 18.2806C38.3764 18.2891 38.0455 18.3039 37.7164 18.325C37.9587 18.0898 38.1974 17.8487 38.4324 17.6017C39.5396 16.433 40.4931 15.2027 41.3235 13.9417C44.5529 8.95909 38.4631 3.14609 33.6343 6.62159C32.3733 7.51353 31.2046 8.5285 30.0973 9.69725C29.8895 9.9158 29.6865 10.1373 29.4881 10.3616C29.4923 10.0388 29.4903 9.71467 29.4821 9.38918C29.4206 7.78983 29.236 6.22124 28.9285 4.74492C27.6674 -1.06808 19.2709 -0.883541 18.3174 4.99098C18.0714 6.49805 17.9791 8.06664 18.0099 9.66599C18.0183 9.99753 18.033 10.3274 18.054 10.6555C17.8111 10.4045 17.5618 10.1573 17.3061 9.91414C16.1681 8.80691 14.9378 7.85345 13.6461 7.02302C8.66349 3.79357 2.85048 9.88339 6.32598 14.7122C7.21793 15.9732 8.2329 17.142 9.40165 18.2492C9.63132 18.4675 9.86421 18.6807 10.1002 18.8887C9.76581 18.8838 9.42989 18.8856 9.09254 18.8942C7.52395 18.9249 5.95537 19.1095 4.44829 19.4478C-1.36471 20.7088 -1.18017 29.1054 4.69434 30.0588C6.20142 30.3049 7.77001 30.3972 9.36935 30.3664C9.70072 30.358 10.0304 30.3432 10.3584 30.3222Z" fill="#FF98D5"/>
</svg>
