<svg width="71" height="74" viewBox="0 0 71 74" fill="none" xmlns="http://www.w3.org/2000/svg">
<path fill-rule="evenodd" clip-rule="evenodd" d="M0.432224 14.3549C0.432224 6.80606 6.55177 0.686523 14.1006 0.686523L57.3037 0.686523C64.8525 0.686523 70.9721 6.80606 70.9721 14.3549C70.9721 19.078 68.5765 23.2415 64.9341 25.6968C68.5454 28.1569 70.9167 32.3021 70.9167 37.0012C70.9167 41.7056 68.54 45.8549 64.9219 48.3139C68.5559 50.7705 70.9449 54.9291 70.9449 59.6457C70.9449 67.1946 64.8254 73.3141 57.2765 73.3141H14.0735C6.52463 73.3141 0.405072 67.1946 0.405072 59.6457C0.405072 54.9413 2.78172 50.7921 6.39984 48.333C2.76586 45.8765 0.376831 41.7178 0.376831 37.0012C0.376831 32.2781 2.7724 28.1146 6.41478 25.6593C2.80353 23.1992 0.432224 19.054 0.432224 14.3549Z" fill="#FF5C37"/>
</svg>
