<svg width="48" height="66" viewBox="0 0 48 66" fill="none" xmlns="http://www.w3.org/2000/svg">
<path fill-rule="evenodd" clip-rule="evenodd" d="M45.1695 29.9916C47.6701 29.3516 48.1499 26.0211 45.931 24.7061L5.58834 0.798812C3.66825 -0.339046 1.23184 1.02065 1.2028 3.24626L0.592731 50.0081C0.559176 52.5801 3.66042 53.9121 5.5144 52.122L15.6556 42.3299C17.0236 41.009 19.2763 41.3373 20.2073 42.9932L32.2771 64.4606C33.0604 65.8538 34.829 66.3506 36.2274 65.5702L40.6369 63.1094C42.0353 62.329 42.5339 60.5669 41.7506 59.1737L29.6808 37.7061C28.7498 36.0502 29.6455 33.9649 31.4906 33.4926L45.1695 29.9916Z" fill="#FF98D5"/>
</svg>
