<svg width="75" height="72" viewBox="0 0 75 72" fill="none" xmlns="http://www.w3.org/2000/svg">
<path d="M23.372 71.4317C22.4025 71.4317 21.3983 71.1893 20.4981 70.7046C18.5244 69.6658 17.3126 67.5883 17.3126 65.3723V60.4559C6.8558 59.3825 0 51.6953 0 40.6845V19.9095C0 7.99843 7.99843 0 19.9095 0H54.5347C66.4458 0 74.4442 7.99843 74.4442 19.9095V40.6845C74.4442 52.5956 66.4458 60.594 54.5347 60.594H41.481L26.7306 70.4279C25.7264 71.0858 24.5493 71.4317 23.372 71.4317ZM19.9095 5.15912C10.9762 5.15912 5.19378 10.9415 5.19378 19.8748V40.6502C5.19378 49.5835 10.9762 55.366 19.9095 55.366C21.3291 55.366 22.5064 56.5432 22.5064 57.9628V65.338C22.5064 65.7881 22.7834 65.9959 22.9565 66.0998C23.1297 66.2037 23.4759 66.3075 23.8568 66.0652L39.265 55.8161C39.6805 55.5391 40.1999 55.366 40.7193 55.366H54.5694C63.5027 55.366 69.2851 49.5835 69.2851 40.6502V19.8748C69.2851 10.9415 63.5027 5.15912 54.5694 5.15912H19.9095Z" fill="#292D32"/>
</svg>
