<svg width="18" height="22" viewBox="0 0 18 22" fill="none" xmlns="http://www.w3.org/2000/svg">
<path d="M9.22149 21.0795C7.80186 21.0795 6.6246 19.9022 6.6246 18.4826V17.7555C6.6246 13.7389 9.56775 11.7653 10.6758 11.0035C11.9569 10.1379 12.3724 9.54928 12.3724 8.64902C12.3724 6.91776 10.9528 5.49798 9.22149 5.49798C7.49023 5.49798 6.0706 6.91776 6.0706 8.64902C6.0706 10.0687 4.89334 11.2459 3.47371 11.2459C2.05421 11.2459 0.876953 10.0687 0.876953 8.64902C0.876953 4.04386 4.61634 0.304199 9.22149 0.304199C13.8267 0.304199 17.5662 4.04386 17.5662 8.64902C17.5662 12.5963 14.6577 14.5699 13.5843 15.2971C12.2339 16.1973 11.8184 16.7859 11.8184 17.7555V18.4826C11.8184 19.9368 10.6411 21.0795 9.22149 21.0795Z" fill="#292D32"/>
</svg>
