<svg width="68" height="70" viewBox="0 0 68 70" fill="none" xmlns="http://www.w3.org/2000/svg">
<path d="M9.56011 69.076C7.23135 69.076 5.05528 68.2739 3.49005 66.785C1.50487 64.9144 0.550452 62.0893 0.89404 59.0352L2.30657 46.666C2.57381 44.3372 3.98634 41.2449 5.62793 39.5651L36.9709 6.38991C44.7971 -1.8944 52.9669 -2.12346 61.2512 5.70274C69.5355 13.5289 69.7646 21.6987 61.9384 29.983L30.5954 63.1582C28.992 64.8762 26.0142 66.4796 23.6854 66.8617L11.3926 68.9611C10.7436 68.9992 10.1709 69.076 9.56011 69.076ZM49.2256 5.66456C46.286 5.66456 43.7282 7.49704 41.1322 10.2457L9.78917 43.4595C9.02564 44.2612 8.14758 46.1701 7.99488 47.2772L6.58235 59.646C6.42964 60.9058 6.73505 61.9366 7.42223 62.5856C8.10941 63.2346 9.14017 63.4636 10.4 63.2728L22.6928 61.1734C23.8 60.9826 25.6324 59.9896 26.396 59.1879L57.7389 26.0127C62.4728 20.9734 64.1908 16.3158 57.2808 9.8258C54.2267 6.88621 51.5925 5.66456 49.2256 5.66456Z" fill="#292D32"/>
</svg>
